<svg width="160" height="88" viewBox="0 0 160 88" fill="none" xmlns="http://www.w3.org/2000/svg">
<g clip-path="url(#clip0)">
<path d="M54.4526 5.83752V11.675L48.657 11.7042L42.8467 11.748L42.803 12.2879L42.7592 12.8425H48.5986H54.4526V18.68V24.5175H55.0365H55.6205V18.68V12.8425H61.4599H67.2993V12.2587V11.675H61.4599H55.6205V5.83752V4.19617e-05H55.0365H54.4526V5.83752Z" fill="black"/>
<path d="M15.2555 2.83122C11.3723 3.83819 7.4161 6.23155 5.02194 9.00436C2.02924 12.4485 0.890552 15.3234 0.262815 20.942C4.14401e-05 23.3937 4.14401e-05 40.0306 0.262815 42.6136C0.861355 48.3198 2.24822 51.6617 5.4015 54.9307C8.17522 57.8203 11.5621 59.8488 15.0073 60.7098C17.0657 61.2206 18.292 61.352 21.0219 61.352C25.1971 61.352 27.7811 60.7682 31.1387 59.0899L32.8468 58.2289V70.1665C32.8468 76.7191 32.8905 82.542 32.9489 83.082L33.0365 84.0743L45.0219 84.016C56.6278 83.9576 57.0511 83.9576 58.4672 83.6511C62.2336 82.8339 65.0365 81.5788 67.2993 79.6962C71.0073 76.5878 73.1679 72.268 73.9416 66.4014C74.1898 64.548 74.5256 58.1851 74.3942 57.8495C74.3358 57.6743 73.5913 57.6452 69.7811 57.6452H65.2555V59.1337C65.2555 61.4103 64.9927 64.4458 64.6716 66.1679C64.0584 69.3347 63.3723 70.7941 61.7665 72.3994C60.438 73.7274 59.0073 74.603 57.2409 75.1722C55.2701 75.7997 53.8395 75.9019 47.5913 75.8581L41.9708 75.8143L41.927 66.7224L41.8978 57.6452H37.5183H33.1387V51.2239C33.1387 45.6199 33.1095 44.8027 32.9197 44.8027C32.803 44.8027 32.7008 44.8757 32.7008 44.9778C32.7008 45.2551 31.7957 47.1523 31.2117 48.1009C29.9416 50.144 27.3285 51.9974 24.7154 52.7125C23.1825 53.1211 20.1752 53.1649 18.3942 52.7855C15.3139 52.1287 13.0657 50.6694 11.5329 48.349C9.75187 45.6637 9.28471 43.0223 9.10953 34.5871C9.00734 29.7128 9.21172 23.3208 9.56208 20.942C9.82486 19.0302 10.4088 17.0747 11.0219 15.9656C12.146 13.9662 13.9124 12.3609 16.1168 11.3685L17.2263 10.8724V6.66936V2.48097H16.9051C16.7154 2.49557 15.9854 2.6561 15.2555 2.83122Z" fill="black"/>
<path d="M24.9635 6.66936V10.8723L26.3796 11.602C29.2701 13.0906 31.4599 15.9947 32.438 19.5994L32.6132 20.2853H37.1825H41.7519V19.8329C41.7519 19.2929 41.2993 17.4541 40.7738 15.8342C40.3504 14.5354 39.2117 12.1712 38.4234 10.9453C35.7373 6.8153 31.6497 3.96952 26.6424 2.75825C24.7738 2.32044 24.9635 1.85344 24.9635 6.66936Z" fill="black"/>
<path d="M36.511 29.348C34.7884 29.8588 33.2847 31.537 32.9928 33.2883C32.8322 34.3244 32.7884 39.3301 32.9344 41.0521L33.0366 42.1758H37.4599H41.8979V40.1327C41.8979 38.1334 41.9125 38.0604 42.2628 37.7102L42.6424 37.3307L48.876 37.4037C54.6132 37.4475 55.1971 37.4767 56.2774 37.7685C60.0147 38.7317 62.7008 40.9938 63.9855 44.219C64.4964 45.5178 64.949 47.8528 65.0658 49.7646L65.1534 51.3699H69.7519H74.3504L74.2482 49.5748C73.8541 42.4093 71.8687 37.6518 67.6935 33.9012C65.0804 31.5516 61.3869 29.9755 57.168 29.4064C55.8833 29.2312 53.6935 29.1875 46.292 29.202C40.7884 29.202 36.803 29.275 36.511 29.348Z" fill="black"/>
<path d="M85.4015 57.5576C83.708 58.0392 82.7007 58.8418 82.0146 60.2282C81.6059 61.0747 81.5329 61.3665 81.4891 62.6216C81.3723 65.336 82.2628 67.0143 84.3504 68.0359C85.2701 68.4883 85.4015 68.5175 87.0073 68.5175C89.4599 68.5175 90.3942 68.1526 90.584 67.0873C90.6569 66.7078 90.6423 66.5473 90.511 66.5473C90.4088 66.5473 89.9416 66.7954 89.4453 67.0873C88.5986 67.6126 88.4964 67.6418 87.3139 67.6418C85.927 67.6418 85.3139 67.4229 84.5256 66.6641C83.4745 65.6717 82.9781 63.5848 83.3577 61.7022C83.7664 59.5861 84.9927 58.4186 86.9635 58.2581C87.7956 58.1997 87.9854 58.2289 88.8321 58.6667C89.3431 58.9294 89.7956 59.2359 89.8394 59.338C89.9854 59.732 90.4672 59.5715 90.5694 59.0899C90.7737 58.0684 90.7153 57.9662 89.8978 57.7035C88.8759 57.3971 86.2628 57.2949 85.4015 57.5576Z" fill="black"/>
<path d="M108.701 62.1254C108.657 64.7668 108.569 67.2478 108.526 67.671L108.438 68.4153H109.124H109.825L109.752 65.336C109.708 63.6285 109.708 61.8481 109.766 61.3811L109.854 60.5055L111.533 62.3297C112.453 63.3221 113.27 64.2123 113.358 64.2998C113.898 64.869 115.985 67.1894 116.511 67.8169C117.65 69.1449 117.606 69.2763 117.708 63.5118C117.766 60.7244 117.839 58.2726 117.898 58.0391C117.985 57.6451 117.985 57.6451 117.299 57.6451H116.613L116.715 61.5416L116.803 65.4527L115.971 64.5771C112.92 61.3811 110.438 58.7104 109.708 57.8202C109.489 57.5721 109.197 57.3532 109.066 57.3532C108.818 57.3532 108.803 57.7035 108.701 62.1254Z" fill="black"/>
<path d="M152.029 57.616C149.898 58.2581 148.642 59.6883 148.292 61.9211C147.985 63.9496 148.555 65.9927 149.766 67.1165C150.058 67.3937 150.715 67.817 151.241 68.0651C152.161 68.5029 152.263 68.5175 154.088 68.5175C156.204 68.5029 157.007 68.284 158.117 67.3937C159.927 65.9344 160.555 62.6216 159.46 60.3012C159.037 59.3818 157.708 58.1705 156.715 57.7911C155.504 57.3387 153.285 57.2511 152.029 57.616ZM155.694 58.5354C158.891 59.7321 159.095 65.6571 155.985 67.3208C155.518 67.5835 155.153 67.6418 154.088 67.6418C152.642 67.6418 151.971 67.3937 151.212 66.5911C149.548 64.8398 149.664 60.6806 151.431 59.1775C152.555 58.2143 154.19 57.9662 155.694 58.5354Z" fill="black"/>
<path d="M99.3431 57.6014L96.7153 57.6452V63.0156V68.3861H99.6058H102.482V67.8315V67.277L100.453 67.3791L98.4088 67.4667L98.365 65.3068L98.3212 63.147L100.19 63.2199L102.044 63.2929V62.7092V62.14L100.219 62.1838L98.3942 62.2422V60.3742V58.4916L100.365 58.6083L102.336 58.7105V58.0976C102.336 57.7035 102.277 57.5138 102.161 57.5284C102.058 57.5576 100.788 57.5868 99.3431 57.6014Z" fill="black"/>
<path d="M122.774 58.1852V58.7981L124.394 58.7105L126 58.623L125.971 63.4973L125.942 68.3716H126.788H127.621L127.606 63.4973L127.577 58.623L129.197 58.696L130.803 58.7835V58.1706V57.5722H126.788H122.774V58.1852Z" fill="black"/>
<path d="M137.299 57.6013L135.839 57.6597L135.869 63.0156L135.898 68.3569L136.701 68.3715L137.518 68.3861V65.8614C137.518 64.3582 137.577 63.3367 137.664 63.3367C137.854 63.3367 139.329 65.0733 140.642 66.8975L141.796 68.4736L142.321 68.3861C142.613 68.3423 143.022 68.2985 143.256 68.2985C143.796 68.2985 143.752 68.0942 143.037 67.2332C142.263 66.2992 142.292 66.3284 140.978 64.6501L139.883 63.2637L140.715 62.8842C141.679 62.4464 142.584 61.4833 142.715 60.7536C142.861 60.0093 142.642 59.0023 142.248 58.5353C141.547 57.6889 140.409 57.4846 137.299 57.6013ZM139.737 58.5207C140.029 58.6083 140.438 58.871 140.642 59.1045C141.168 59.732 141.241 60.2866 140.905 61.0454C140.511 61.9357 139.81 62.3297 138.526 62.4318L137.518 62.5048V60.5347C137.518 59.4547 137.562 58.5207 137.62 58.477C137.766 58.3164 139.124 58.3602 139.737 58.5207Z" fill="black"/>
<path d="M14.3066 69.3201V75.1576H8.46716H2.62775V75.7413V76.3251H8.46716H14.3066V82.1772V88.0146L14.8613 87.9709L15.4015 87.9271L15.4453 82.1188L15.4745 76.3251H21.3139H27.1533V75.7413V75.1576H21.3139H15.4745V69.5536C15.4745 66.4743 15.4307 63.8475 15.3869 63.7161C15.3285 63.5702 15.1241 63.4826 14.8029 63.4826H14.3066V69.3201Z" fill="black"/>
<path d="M122.423 73.4356C122.38 73.6253 122.277 74.428 122.19 75.2306C122.102 76.0333 121.796 78.2077 121.518 80.0611C120.92 84.1036 120.92 84.0598 121.358 84.0598C121.533 84.0598 121.81 84.1036 121.985 84.1474C122.277 84.2203 122.292 84.162 122.394 82.5713C122.467 81.6664 122.613 79.9444 122.745 78.7623L122.993 76.6024L124.876 80.3384C125.912 82.3815 126.847 84.0598 126.934 84.0598C127.037 84.0598 127.679 82.9215 128.365 81.5351C130.058 78.1348 130.92 76.6462 131.007 76.9089C131.037 77.0256 131.183 78.3391 131.314 79.8276C131.431 81.3162 131.577 82.8777 131.621 83.2863L131.708 84.0598H132.584H133.445L133.358 83.5782C133.241 82.8485 132.891 79.9006 132.555 76.8359C132.161 73.0999 132.161 73.1145 131.825 73.1145C131.664 73.1145 131.533 73.1729 131.533 73.2459C131.533 73.3626 129.475 77.23 128.248 79.3898C127.956 79.9152 127.621 80.5573 127.504 80.8346L127.27 81.3308L126.803 80.4698C125.985 79.0104 124.044 75.2744 123.518 74.1653C122.993 73.0707 122.555 72.7789 122.423 73.4356Z" fill="black"/>
<path d="M82.2774 78.7185V84.1182L85.0511 84.1036C88.1022 84.1036 88.6862 83.9868 89.9271 83.155C91.4161 82.1626 92.1022 80.7032 92.1168 78.5288C92.1168 76.7483 91.8103 75.6392 91.0949 74.822C89.9417 73.5231 88.8906 73.2604 84.9636 73.3042L82.2628 73.3334L82.2774 78.7185ZM88.0001 74.4863C89.5037 75.0263 90.2336 76.1646 90.3358 78.1493C90.4672 80.6303 89.5621 82.2939 87.7081 82.9944C87.0803 83.2279 84.219 83.3593 84.0292 83.1696C83.8687 83.009 83.7519 77.4926 83.8687 75.8435L83.9708 74.282H85.6935C86.8176 74.282 87.6205 74.355 88.0001 74.4863Z" fill="black"/>
<path d="M96.7153 78.733V84.1327L99.562 84.1035L102.409 84.0889L102.453 83.5489L102.496 83.009L100.453 83.1111L98.3942 83.2279V81.0826V78.9519H100.219H102.044V78.3974V77.8428L100.219 77.9012L98.3942 77.9596V76.1062V74.2528L100.365 74.3549L102.336 74.4571V73.8879V73.3334H99.5328H96.7153V78.733Z" fill="black"/>
<path d="M108.54 78.6746V84.0597H109.401H110.263L110.175 81.5788C110.117 79.5648 110.131 79.0978 110.292 79.0978C110.569 79.0978 111.533 80.207 113.066 82.2793L114.38 84.0597H115.372C116.058 84.0597 116.35 84.0013 116.35 83.87C116.35 83.7824 115.489 82.6295 114.453 81.3307C113.401 80.0318 112.555 78.9373 112.555 78.8935C112.555 78.8497 112.672 78.806 112.818 78.806C113.358 78.806 114.526 78.0763 114.949 77.4633C115.883 76.1353 115.518 74.3257 114.19 73.669C113.562 73.3625 113.299 73.3333 111.022 73.3187L108.54 73.3041V78.6746ZM112.905 74.4862C113.474 74.8511 113.781 75.4202 113.766 76.0478C113.708 77.3174 112.672 78.1201 111.037 78.1347L110.146 78.1492L110.204 76.2521C110.234 75.2013 110.292 74.2965 110.336 74.2235C110.453 74.0192 112.496 74.2089 112.905 74.4862Z" fill="black"/>
</g>
<defs>
<clipPath id="clip0">
<rect width="160" height="88" fill="white"/>
</clipPath>
</defs>
</svg>
